<svg width="84" height="56" viewBox="0 0 84 56" fill="none" xmlns="http://www.w3.org/2000/svg">
<path d="M76.2611 2.32996C73.7566 5.73714 73.1516 8.92592 74.432 12.0565C74.8119 13.0029 75.6561 14.2114 77.0912 15.8859C78.653 17.7205 79.1173 18.5942 79.2299 19.9192C79.3284 21.2151 79.455 21.2879 80.6088 20.6909C82.9445 19.4969 84.3374 16.9925 83.9294 14.7065C83.6058 12.8864 82.9726 11.8963 80.3977 9.15889C77.851 6.45062 77.3023 5.6061 77.0068 4.01899C76.9083 3.50937 76.8661 2.75221 76.8943 2.30083C76.9365 1.86402 76.9365 1.5 76.9224 1.5C76.8943 1.5 76.5988 1.87858 76.2611 2.32996ZM79.0329 12.1293C80.0038 13.3815 80.454 14.2114 80.7214 15.2889C80.9746 16.279 81.0168 18.0554 80.8058 18.3903C80.7073 18.5505 80.6651 18.4195 80.6651 17.939C80.6651 16.2499 79.3988 13.3669 77.4711 10.6732L76.6832 9.58115L77.4852 10.382C77.9354 10.8188 78.6249 11.6051 79.0329 12.1293Z" fill="url(#paint0_linear_1450_6497)"/>
<path d="M39.6504 5.2712C38.6654 5.53329 37.7509 6.30501 37.2443 7.32425C36.8926 8.03772 36.9067 9.66851 37.2584 10.4402C37.8072 11.6196 39.1579 12.537 40.3679 12.5515C41.6905 12.5806 43.0976 11.6342 43.6744 10.3383C44.2091 9.11521 43.9558 7.4553 43.0694 6.37781C42.3659 5.51873 40.7197 4.97999 39.6504 5.2712Z" fill="url(#paint1_linear_1450_6497)"/>
<path d="M63.2602 9.94517C62.6974 10.2946 62.5145 10.6441 62.5145 11.3721C62.5145 12.8136 64.3155 13.498 65.2582 12.4205C65.4833 12.1584 65.7084 12.1293 67.5516 12.1293H69.6059L73.0531 15.784C75.1636 18.0263 76.5284 19.5843 76.5566 19.7882C76.5847 20.0357 76.7676 20.1667 77.246 20.3415C77.6118 20.4725 77.9214 20.5744 77.9495 20.5744C77.9777 20.5744 77.9917 20.356 77.9917 20.0939C77.9777 19.031 77.5274 18.434 73.7285 14.4881L70.0561 10.6732H67.7768C65.8913 10.6732 65.4833 10.6295 65.413 10.4548C65.3004 10.149 64.4702 9.65395 64.0622 9.65395C63.8652 9.65395 63.5135 9.785 63.2602 9.94517Z" fill="url(#paint2_linear_1450_6497)"/>
<path d="M38.6654 13.7164C36.6956 14.1095 34.9228 15.0851 33.5579 16.512C32.8263 17.2692 31.7429 18.798 31.6444 19.1912C31.6303 19.2931 49.0211 19.2931 49.1196 19.1912C49.2744 19.031 48.1628 17.3856 47.3046 16.4829C46.3196 15.4636 45.0252 14.6191 43.5337 14.0513C42.788 13.7746 42.2674 13.6872 40.9167 13.6581C39.988 13.629 38.975 13.6581 38.6654 13.7164Z" fill="url(#paint3_linear_1450_6497)"/>
<path d="M8.30188 13.9493C6.99334 14.2114 5.37527 14.8812 4.36221 15.5801C1.64666 17.4876 0.0145085 20.7637 0.000438305 24.3602C-0.0136319 26.1512 0.309983 27.5635 1.12606 29.3108C1.6748 30.4757 1.9562 30.8834 3.05368 32.0045C4.19337 33.1839 4.51698 33.4315 5.95215 34.1595C7.58429 34.9895 9.87774 35.7466 12.143 36.2271C16.9832 37.2318 17.5882 37.4356 18.5169 38.3675C19.0937 38.9645 19.1782 39.1247 19.1782 39.6489C19.1782 40.6827 18.7561 41.2505 17.9822 41.2505C17.3068 41.2505 17.1943 41.1195 17.2928 40.3915C17.3631 39.8381 17.3209 39.6489 17.0817 39.3285C16.6877 38.8189 16.0827 38.6879 15.4777 38.9936C14.943 39.2557 14.3943 40.1439 14.3943 40.7555C14.3943 41.3525 14.9149 42.3717 15.4496 42.8085C17.94 44.8616 21.2746 43.158 21.8374 39.5324C22.3721 36.0669 18.939 31.0726 14.7601 29.238L13.8596 28.8449L14.127 28.3789C14.5068 27.7383 14.4928 26.355 14.1129 25.6998C13.6626 24.9426 13.128 24.5349 12.34 24.3456C11.1159 24.0544 9.90588 24.666 9.34307 25.8599C9.00539 26.5734 8.97725 27.185 9.21644 28.0586C9.45563 28.8886 10.736 30.1844 11.6506 30.5339C13.4797 31.2037 15.1822 32.1501 16.2797 33.1257C17.0395 33.7955 17.1098 34.0285 16.4767 33.7664C16.2234 33.6499 15.4496 33.4315 14.746 33.2567C11.7772 32.5287 10.6094 32.2084 9.82146 31.9172C5.7833 30.4611 3.6587 27.7528 3.88382 24.302C4.1793 19.3659 8.8084 16.6867 13.2687 18.8708C14.8445 19.6426 16.4767 21.6374 17.349 23.836L17.6445 24.6077L21.8796 24.6951C29.2665 24.8698 29.6323 24.8553 30.2374 24.433C30.8424 24.0107 31.0112 23.9962 31.56 24.2874C32.4745 24.7825 32.6856 25.7871 32.0102 26.5443C31.5037 27.1267 30.9268 27.2286 30.3077 26.8355C30.0545 26.6608 29.8153 26.4132 29.7731 26.2676C29.7168 26.0055 29.3932 25.991 23.9198 25.9327C20.7259 25.9036 18.1088 25.8745 18.0807 25.8891C18.0244 25.9327 18.8968 28.3498 19.4174 29.5583L19.9239 30.7669H23.1038C25.6786 30.7523 26.3399 30.7232 26.551 30.5485C26.7057 30.4174 27.1278 30.3301 27.5077 30.3301C28.4223 30.3301 28.8866 30.7814 28.8866 31.6551C28.8866 32.1647 28.8022 32.3394 28.3801 32.7617L27.8736 33.2567L27.9861 37.2755L28.1128 41.3088L29.2665 42.1242C29.9138 42.561 30.758 43.1143 31.166 43.3327L31.8836 43.755L31.7992 37.1299L31.7288 30.5048L35.2182 26.9229V20.72H32.8966C30.9831 20.72 30.364 20.7783 29.4213 21.0258C28.4645 21.2879 28.0002 21.3316 26.7198 21.2733C24.0043 21.1423 22.0204 20.2395 18.8686 17.6623C16.9129 16.0898 15.9561 15.42 14.7742 14.8375C12.9169 13.9348 10.2576 13.5708 8.30188 13.9493Z" fill="url(#paint4_linear_1450_6497)"/>
<path d="M60.0381 14.9831C58.7718 15.6238 58.8984 17.5458 60.2351 17.9681C60.8823 18.1574 61.614 17.9826 62.022 17.5167C62.2612 17.24 62.4863 17.2255 66.0883 17.2255H69.9014L72.1526 19.5261L74.2068 19.7008L72.5466 17.9972C71.632 17.0508 70.7315 16.1626 70.5345 16.0315C70.225 15.7985 69.7606 15.7694 66.229 15.7694C62.3878 15.7694 62.2753 15.7549 62.008 15.4636C61.6843 15.0851 61.0652 14.7502 60.7276 14.7502C60.5869 14.7502 60.2773 14.8521 60.0381 14.9831Z" fill="url(#paint5_linear_1450_6497)"/>
<path d="M46.4744 36.9843L47.4312 37.0716C47.9518 37.1299 48.8804 37.1735 49.4995 37.1735C50.5126 37.1735 50.6533 37.1299 50.9628 36.8095C51.4693 36.2562 52.3839 36.2999 52.8623 36.8969C53.5658 37.756 53.2141 39.0228 52.1869 39.2994C51.7226 39.4159 51.0472 39.1392 50.7096 38.6879C50.4563 38.353 50.3859 38.3384 48.3317 38.3384C46.2634 38.3384 46.2071 38.3238 45.785 37.9598L45.3488 37.5812V20.72H41.6905V27.8693L42.1126 28.2479C42.4503 28.5391 42.5347 28.7284 42.5347 29.1943C42.5347 29.9224 42.3518 30.2718 41.8312 30.5485C41.184 30.8979 40.7338 30.8251 40.1991 30.2718C39.5519 29.602 39.5378 28.9031 40.1428 28.2624L40.5649 27.8256V20.72H36.3157L36.3579 24.069L36.3861 27.4034L34.5851 29.1943L32.7981 30.9853L32.9951 44.2937L34.0785 44.7305C34.6695 44.9635 35.8514 45.3421 36.6956 45.5605C38.187 45.9536 38.384 45.9682 41.6905 45.9827C44.5749 45.9827 45.3207 45.9391 46.2634 45.7061C50.7096 44.6286 53.7909 43.0269 57.8854 39.6197C59.813 38.0326 60.4602 37.4211 63.9215 33.912C70.7737 26.9665 74.235 24.7824 79.8771 23.9088C81.1435 23.705 81.1435 23.7195 79.5676 22.8022C77.4008 21.55 74.9666 20.9676 71.7305 20.953C69.1838 20.9384 67.7767 21.1423 64.1326 22.0451C60.5869 22.9187 59.7989 23.0497 58.3216 23.0497C55.9578 23.0497 53.6643 22.4819 51.4693 21.3461L50.203 20.6909L48.3317 20.6764L46.4744 20.6472V36.9843ZM51.1598 25.2338C51.7367 25.9036 51.61 26.8501 50.8784 27.3597L50.5266 27.5927L50.6251 30.0825C50.7096 32.354 50.7518 32.6161 51.005 32.8345C51.2583 33.0675 51.61 33.0966 53.8894 33.0966C56.4643 33.0966 56.4924 33.0966 56.9145 32.7326C57.1959 32.485 57.5055 32.3685 57.8713 32.3685C58.3638 32.3685 58.4341 32.3103 58.7999 31.6696C59.011 31.2911 59.2924 30.8251 59.4331 30.6358C59.6301 30.3883 59.6582 30.2281 59.5597 30.0388C59.2924 29.5147 59.3909 28.6265 59.7848 28.1605C60.0944 27.7674 60.2351 27.7091 60.8261 27.7091C61.417 27.7091 61.5577 27.7674 61.8672 28.1605C62.2612 28.641 62.3456 29.3399 62.0783 29.9369C61.9095 30.3155 61.2763 30.7669 60.8683 30.7669C60.5306 30.7814 59.0954 33.1548 59.208 33.5334C59.3487 33.9702 58.9266 34.8002 58.42 35.0623C57.8291 35.3826 56.9567 35.1496 56.7175 34.6109L56.5628 34.2614H50.8362L50.203 33.6644L49.5699 33.0529V27.5927L49.1478 27.1558C48.8664 26.8501 48.7257 26.5734 48.7257 26.2676C48.7257 24.797 50.2171 24.1563 51.1598 25.2338ZM36.3298 31.16C36.8363 31.6259 38.1026 32.849 39.1157 33.8828L40.987 35.7612V40.3478L41.4091 40.7846C42.4222 41.8475 41.4654 43.5948 40.0584 43.2308C39.0172 42.9541 38.6654 41.5854 39.4393 40.7846L39.8614 40.3478V36.1106L37.2584 33.4751C34.8102 30.9853 34.6695 30.8106 34.8946 30.5776C35.0353 30.4465 35.1901 30.3301 35.2745 30.3301C35.3449 30.3301 35.8232 30.7086 36.3298 31.16Z" fill="url(#paint6_linear_1450_6497)"/>
<path d="M20.5852 32.0045C20.5852 32.0919 21.3872 33.4897 21.9641 34.407C22.8646 35.834 24.0887 37.3628 25.4816 38.8189L26.8464 40.2458L26.8887 36.7367L26.9168 33.2131L26.4947 32.718C26.2696 32.4413 26.0726 32.1501 26.0726 32.0773C26.0726 31.99 25.0032 31.9317 23.3289 31.9317C21.8234 31.9317 20.5852 31.9608 20.5852 32.0045Z" fill="url(#paint7_linear_1450_6497)"/>
<path d="M45.6302 47.1476C45.1237 47.2495 43.787 47.4242 42.6473 47.5262C40.8463 47.6863 40.2976 47.6718 38.4825 47.4679C37.3428 47.3369 36.3016 47.1913 36.1891 47.1476C36.0343 47.0893 35.9217 47.2204 35.8092 47.6281C35.3308 49.2734 33.2625 50.8023 30.6454 51.4575C27.9439 52.1273 27.5781 52.4185 27.5077 53.9765C27.4515 54.9958 27.4655 55.0394 27.7751 55.1414C27.958 55.1996 30.8002 55.3161 34.0926 55.4035C38.7076 55.5345 41.6765 55.5345 47.1076 55.3889C50.9769 55.287 54.3959 55.1705 54.7055 55.1123L55.2683 55.0103L55.3105 54.2241C55.3668 53.3504 55.1839 52.7826 54.7336 52.3457C54.3959 52.0254 53.1156 51.5886 52.5387 51.5886C52.1025 51.5886 50.2171 50.9916 49.5417 50.6276C48.1066 49.8704 47.192 48.8221 46.8684 47.5844C46.7699 47.2204 46.6573 46.9437 46.6151 46.9437C46.5729 46.9583 46.1367 47.0457 45.6302 47.1476Z" fill="url(#paint8_linear_1450_6497)"/>
<defs>
<linearGradient id="paint0_linear_1450_6497" x1="52.3473" y1="1.5" x2="40.8021" y2="57.4037" gradientUnits="userSpaceOnUse">
<stop offset="0.1" stop-color="#0095FF"/>
<stop offset="0.6" stop-color="#0D66A5"/>
<stop offset="1" stop-color="#0A3A5C"/>
</linearGradient>
<linearGradient id="paint1_linear_1450_6497" x1="52.3473" y1="1.5" x2="40.8021" y2="57.4037" gradientUnits="userSpaceOnUse">
<stop offset="0.1" stop-color="#0095FF"/>
<stop offset="0.6" stop-color="#0D66A5"/>
<stop offset="1" stop-color="#0A3A5C"/>
</linearGradient>
<linearGradient id="paint2_linear_1450_6497" x1="52.3473" y1="1.5" x2="40.8021" y2="57.4037" gradientUnits="userSpaceOnUse">
<stop offset="0.1" stop-color="#0095FF"/>
<stop offset="0.6" stop-color="#0D66A5"/>
<stop offset="1" stop-color="#0A3A5C"/>
</linearGradient>
<linearGradient id="paint3_linear_1450_6497" x1="52.3473" y1="1.5" x2="40.8021" y2="57.4037" gradientUnits="userSpaceOnUse">
<stop offset="0.1" stop-color="#0095FF"/>
<stop offset="0.6" stop-color="#0D66A5"/>
<stop offset="1" stop-color="#0A3A5C"/>
</linearGradient>
<linearGradient id="paint4_linear_1450_6497" x1="52.3473" y1="1.5" x2="40.8021" y2="57.4037" gradientUnits="userSpaceOnUse">
<stop offset="0.1" stop-color="#0095FF"/>
<stop offset="0.6" stop-color="#0D66A5"/>
<stop offset="1" stop-color="#0A3A5C"/>
</linearGradient>
<linearGradient id="paint5_linear_1450_6497" x1="52.3473" y1="1.5" x2="40.8021" y2="57.4037" gradientUnits="userSpaceOnUse">
<stop offset="0.1" stop-color="#0095FF"/>
<stop offset="0.6" stop-color="#0D66A5"/>
<stop offset="1" stop-color="#0A3A5C"/>
</linearGradient>
<linearGradient id="paint6_linear_1450_6497" x1="52.3473" y1="1.5" x2="40.8021" y2="57.4037" gradientUnits="userSpaceOnUse">
<stop offset="0.1" stop-color="#0095FF"/>
<stop offset="0.6" stop-color="#0D66A5"/>
<stop offset="1" stop-color="#0A3A5C"/>
</linearGradient>
<linearGradient id="paint7_linear_1450_6497" x1="52.3473" y1="1.5" x2="40.8021" y2="57.4037" gradientUnits="userSpaceOnUse">
<stop offset="0.1" stop-color="#0095FF"/>
<stop offset="0.6" stop-color="#0D66A5"/>
<stop offset="1" stop-color="#0A3A5C"/>
</linearGradient>
<linearGradient id="paint8_linear_1450_6497" x1="52.3473" y1="1.5" x2="40.8021" y2="57.4037" gradientUnits="userSpaceOnUse">
<stop offset="0.1" stop-color="#0095FF"/>
<stop offset="0.6" stop-color="#0D66A5"/>
<stop offset="1" stop-color="#0A3A5C"/>
</linearGradient>
</defs>
</svg>
